<svg version="1.1" id="Layer_1" xmlns="http://www.w3.org/2000/svg" xmlns:xlink="http://www.w3.org/1999/xlink" x="0px" y="0px" viewBox="0 0 20 22" style="enable-background:new 0 0 20 22" xml:space="preserve"><g><defs><path id="SVGID_1_" d="M3,16.2L3.7,17l8.6-8.4c-0.2-0.1-0.3-0.3-0.5-0.4c-0.2-0.2-0.3-0.3-0.4-0.5L3,16.2z M11.9,2.6l5.6,5.6
			c-1.1,1-2.3,1.5-3.6,1.2l-2.7,2.5l0.1,2.5v6c0,0.7-0.5,1.2-1.2,1.2c-0.7,0-1.2-0.5-1.2-1.2v-6l0-0.2l-4.7,4.5
			c-0.3,0.3-0.8,0.3-1,0l-1.7,1.3c-0.2,0.2-0.6,0.2-0.8-0.1l-0.3-0.3c-0.2-0.3-0.2-0.6-0.1-0.8L1.4,17c-0.2-0.2-0.3-0.7,0-1l9.2-9.8
			C10.4,4.9,10.8,3.6,11.9,2.6z M13.2,1.3c1.7-1.7,3.9-1.7,5.6,0c1.7,1.7,1.6,3.9,0,5.6L13.2,1.3z"></path></defs><clipPath id="SVGID_2_"><use xlink:href="#SVGID_1_" style="overflow:visible"></use></clipPath><rect x="-5" y="-5" width="30" height="31.6" style="clip-path:url(#SVGID_2_)"></rect></g></svg>