<svg xmlns="http://www.w3.org/2000/svg" viewBox="0 0 16 16" class="context-menu__option-icon"><path d="M8.007 10.42c-.338 0-.617-.293-.617-.643V2.752l.046-1.041-.41.517-.922 1.04a.549.549 0 01-.418.189.542.542 0 01-.55-.559c0-.174.06-.3.172-.419L7.536.223C7.695.056 7.848 0 8.006 0c.166 0 .312.056.471.223l2.228 2.256a.575.575 0 01.179.42.547.547 0 01-.557.558.559.559 0 01-.418-.189l-.921-1.04-.411-.51.053 1.034v7.025c0 .35-.279.643-.623.643zM4.18 16C2.75 16 2 15.218 2 13.723V6.858c0-1.501.75-2.277 2.181-2.277h1.81v1.39H4.267c-.61 0-.948.335-.948 1.006v6.62c0 .671.338 1.006.948 1.006h7.466c.603 0 .948-.335.948-1.005V6.977c0-.67-.345-1.006-.948-1.006h-1.704v-1.39h1.79c1.438 0 2.181.783 2.181 2.277v6.865C14 15.218 13.257 16 11.819 16H4.18z"></path></svg>