<svg viewBox="0 0 45 33" xmlns="http://www.w3.org/2000/svg"><path fill-rule="nonzero" stroke="none" stroke-width="1" d="M38.4179688,30.3604142 C40.3125,26.590883 41.796875,21.6885392 41.796875,16.3760392 C41.796875,11.0635392 40.3125,6.16119547 38.4179688,2.39166422 C37.9882812,1.53228922 38.1640625,0.731507974 38.90625,0.243226724 C39.6875,-0.264585776 40.625,0.0479142244 41.1328125,0.946351724 C43.4765625,5.12603922 44.9023438,10.497133 44.9023438,16.3760392 C44.9023438,22.2549455 43.4765625,27.6260392 41.1328125,31.8057267 C40.625,32.7041642 39.6875,33.0166642 38.90625,32.5088517 C38.1640625,32.0205705 37.9882812,31.2197892 38.4179688,30.3604142 Z M20.9375,27.5674455 C20.9375,29.2080705 19.8242188,30.3604142 18.2421875,30.3604142 C17.5390625,30.3604142 16.9140625,30.0869767 16.2109375,29.5791642 L8.671875,24.0322892 L3.59375,24.0322892 C1.3671875,24.0322892 0,22.8213517 0,20.4385392 L0,12.4307267 C0,10.0479142 1.3671875,8.83697672 3.59375,8.83697672 L8.671875,8.83697672 L16.2109375,3.29010172 C16.9140625,2.78228922 17.5390625,2.50885172 18.2421875,2.50885172 C19.8242188,2.50885172 20.9375,3.66119547 20.9375,5.30182047 L20.9375,27.5674455 Z M31.484375,26.356508 C32.8125,23.5049455 33.7890625,20.2236955 33.7890625,16.3760392 C33.7890625,12.528383 32.8125,9.24713297 31.484375,6.39557047 C31.09375,5.55572672 31.2695312,4.77447672 31.9921875,4.26666422 C32.734375,3.75885172 33.75,4.07135172 34.21875,4.96978922 C35.8789062,8.17291422 36.875,11.981508 36.875,16.3760392 C36.875,20.7705705 35.8789062,24.5791642 34.21875,27.7822892 C33.75,28.6807267 32.734375,28.9932267 31.9921875,28.4854142 C31.2695312,27.9776017 31.09375,27.1963517 31.484375,26.356508 Z M24.84375,22.684633 C25.703125,20.8486955 26.25,18.7588517 26.25,16.3760392 C26.25,13.9932267 25.703125,11.903383 24.84375,10.0674455 C24.4726563,9.26666422 24.609375,8.44635172 25.3515625,7.93853922 C26.1132813,7.43072672 27.1289063,7.72369547 27.578125,8.64166422 C28.6328125,10.8486955 29.296875,13.465883 29.296875,16.3760392 C29.296875,19.2861955 28.6328125,21.903383 27.578125,24.1104142 C27.1289063,25.028383 26.1132813,25.3213517 25.3515625,24.8135392 C24.609375,24.3057267 24.4726563,23.4854142 24.84375,22.684633 Z"></path></svg>
